<?xml version="1.0" encoding="utf-8"?>
<!-- Generator: Adobe Illustrator 22.0.0, SVG Export Plug-In . SVG Version: 6.00 Build 0)  -->
<svg version="1.1" id="Layer_1" xmlns="http://www.w3.org/2000/svg" xmlns:xlink="http://www.w3.org/1999/xlink" x="0px" y="0px"
	 viewBox="0 0 668.2 74.4" style="enable-background:new 0 0 668.2 74.4;" xml:space="preserve">
<style type="text/css">
	.st0{fill:#010101;}
	.st1{fill:#F05655;}
	.st2{fill-rule:evenodd;clip-rule:evenodd;fill:#F05655;}
	.st3{fill:none;stroke:#010101;stroke-width:0.8351;stroke-miterlimit:10;}
</style>
<g>
	<path class="st0" d="M36.6,61.8c-0.5,3.2-0.7,6.9-0.7,11l-0.3,0.3l-24.1-0.2c-4,0-6.9,0.1-8.5,0.2l-0.3-0.3v-0.9l0.2-0.4
		c1.6-1,2.5-1.7,2.7-2c0.2-0.4,0.3-1.9,0.4-4.4l0.1-7.4V40.8c0-5.3-0.1-8.7-0.4-10.3c-0.1-0.6-0.5-1.1-1.1-1.2
		c-0.3-0.1-1.6-0.2-3.9-0.3L0,28.6v-2.3l0.3-0.3c2.2,0.1,5.7,0.2,10.4,0.2c4.2,0,12.1-0.1,23.7-0.2l0.4,0.3L34.4,30
		c-0.1,1.2-0.2,2.2-0.3,3l-0.2,3.1l-0.3,0.4h-1.9l-0.3-0.3c0-3-0.2-4.7-0.5-5.1c-0.2-0.3-1.4-0.6-3.6-0.7c-2.1-0.2-4-0.3-5.6-0.3
		c-1.9,0-3.9,0.1-5.8,0.2c-0.2,2.3-0.4,5.5-0.4,9.7v6.9c1.7,0.1,3.2,0.2,4.3,0.2l4.3,0c2,0,3.2-0.2,3.5-0.5c0.4-0.4,0.6-1.9,0.7-4.5
		l0.3-0.3h2.1l0.3,0.3c-0.1,2.5-0.1,4.7-0.1,6.8c0,2.2,0,4.7,0.1,7.3l-0.3,0.3h-2.2L27.9,56c0-2.5-0.2-4.1-0.5-4.5
		c-0.4-0.5-1.4-0.8-3.2-0.9c-1.4-0.1-2.8-0.2-4.3-0.2c-1.6,0-3.1,0.1-4.5,0.2v10.1c0,2.9,0.1,5.7,0.2,8.4H20
		c6.5,0,10.4-0.3,11.9-0.8c0.2-0.1,0.4-0.2,0.5-0.4c0.2-0.3,0.4-1,0.6-2l0.8-4.1l0.3-0.4h2L36.6,61.8z"/>
	<path class="st0" d="M74.4,41.3l-0.2,0.2c-1.1,0.1-1.8,0.2-2.1,0.4c-0.3,0.2-0.6,0.5-1,1.1c-0.4,0.6-1.1,2.1-2,4.5l-1.7,4l-3.2,7.7
		c-2.7,6.7-4.6,11.3-5.5,14H55L44.1,46.8c-1.2-2.8-2-4.3-2.4-4.8c-0.3-0.3-1.3-0.5-2.9-0.5l-0.2-0.3v-1.6l0.3-0.3
		c1.7,0.1,3.8,0.1,6.3,0.1c3.2,0,6.1,0,8.6-0.1l0.2,0.3v1.6l-0.2,0.2c-1.6,0-2.7,0.2-3.2,0.4c-0.3,0.2-0.4,0.4-0.4,0.8
		c0,0.4,0.5,1.9,1.5,4.5l1.1,2.8l6,14.9l5.3-13.2c0.2-0.5,0.7-1.8,1.4-3.8c1.1-2.9,1.6-4.7,1.6-5.2c0-0.5-0.2-0.8-0.5-1
		c-0.3-0.1-1.4-0.2-3.2-0.3l-0.2-0.2v-1.6l0.3-0.2c1.8,0.1,3.7,0.1,5.6,0.1c1.4,0,3.1,0,5.1-0.1l0.3,0.3V41.3z"/>
	<path class="st0" d="M101.7,65c-0.3,2.3-0.5,4.9-0.5,7.8l-0.2,0.2l-17.3-0.1c-2.9,0-4.9,0-6.1,0.1l-0.2-0.2v-0.7l0.1-0.3
		c1.2-0.7,1.8-1.2,1.9-1.4c0.1-0.3,0.2-1.4,0.3-3.2l0.1-5.3V50c0-3.8-0.1-6.2-0.3-7.4c-0.1-0.5-0.3-0.8-0.8-0.9
		c-0.2-0.1-1.2-0.1-2.8-0.2l-0.2-0.2v-1.6l0.2-0.2c1.6,0.1,4.1,0.1,7.4,0.1c3,0,8.6,0,17-0.1l0.3,0.2l-0.3,2.6
		c-0.1,0.8-0.2,1.6-0.2,2.1l-0.2,2.2l-0.2,0.3h-1.4l-0.2-0.2c0-2.2-0.1-3.4-0.4-3.7c-0.2-0.2-1-0.4-2.6-0.5s-2.9-0.2-4-0.2
		c-1.4,0-2.8,0.1-4.2,0.2c-0.2,1.7-0.3,4-0.3,6.9v4.9c1.3,0.1,2.3,0.1,3,0.1l3.1,0c1.5,0,2.3-0.1,2.5-0.4c0.3-0.3,0.4-1.4,0.5-3.2
		l0.2-0.2h1.5l0.2,0.2c-0.1,1.8-0.1,3.4-0.1,4.9c0,1.6,0,3.4,0.1,5.3l-0.2,0.2h-1.6l-0.2-0.2c0-1.8-0.1-2.9-0.4-3.2
		c-0.3-0.3-1-0.6-2.3-0.7c-1-0.1-2-0.1-3.1-0.1c-1.2,0-2.2,0-3.2,0.1v7.2c0,2.1,0,4.1,0.1,6h3.2c4.6,0,7.5-0.2,8.5-0.5
		c0.2-0.1,0.3-0.2,0.4-0.3c0.2-0.2,0.3-0.7,0.5-1.4l0.6-2.9l0.2-0.3h1.4L101.7,65z"/>
	<path class="st0" d="M141.3,41.2l-0.3,0.2c-1.6,0.1-2.5,0.2-2.8,0.2c-0.5,0.1-0.7,0.4-0.8,0.9c-0.2,1.1-0.3,3.6-0.3,7.4v9.6
		c0,7.1,0.1,11.7,0.3,13.9l-0.3,0.2c-1.8-0.3-3.1-0.5-4.1-0.6c-4.2-4.8-11.5-13.5-21.7-26.1v15.5c0,3.8,0.1,6.2,0.3,7.4
		c0.1,0.5,0.3,0.8,0.8,0.9c0.2,0.1,1.2,0.1,2.8,0.2l0.2,0.2v1.6l-0.2,0.2c-1.8-0.1-3.5-0.1-5.1-0.1c-1.8,0-3.7,0-5.5,0.1l-0.2-0.2
		v-1.6l0.2-0.2c1.6-0.1,2.5-0.2,2.8-0.2c0.5-0.1,0.7-0.4,0.8-0.9c0.2-1.1,0.3-3.6,0.3-7.4V50c0-3.8-0.1-6.2-0.3-7.4
		c-0.1-0.5-0.3-0.8-0.8-0.9c-0.2-0.1-1.2-0.1-2.8-0.2l-0.2-0.2v-1.6l0.2-0.2c1.5,0.1,2.9,0.1,4.3,0.1c2.1,0,3.9,0,5.3-0.1
		c5.7,7.6,12.4,15.8,20.1,24.5V50c0-3.8-0.1-6.2-0.3-7.4c-0.1-0.5-0.3-0.8-0.8-0.9c-0.2-0.1-1.2-0.1-2.8-0.2l-0.2-0.2v-1.6l0.2-0.2
		c1.8,0.1,3.5,0.1,5.1,0.1c2,0,3.9,0,5.5-0.1l0.2,0.2V41.2z"/>
	<path class="st0" d="M173.1,39.6c-0.2,1.2-0.3,2.4-0.3,3.6l0,4l-0.2,0.2H171l-0.3-0.2c-0.1-2-0.2-3.2-0.3-3.6
		c-0.2-0.6-0.7-1-1.5-1.1c-0.3,0-1.8-0.1-4.5-0.1h-3.2c0,0.6,0,2.8,0,6.6v13.5c0,3.8,0.1,6.2,0.3,7.4c0.1,0.5,0.3,0.8,0.8,0.9
		c0.2,0.1,1.2,0.1,2.8,0.2l0.2,0.2v1.6l-0.2,0.2c-1.6-0.1-4-0.1-7.3-0.1c-3.4,0-5.8,0-7.3,0.1l-0.2-0.2v-1.6l0.2-0.2
		c1.6-0.1,2.5-0.2,2.8-0.2c0.5-0.1,0.7-0.4,0.8-0.9c0.2-1.1,0.3-3.6,0.3-7.4V49c0-3.9,0-6.1-0.1-6.6H151c-2.8,0-4.5,0.1-5,0.3
		c-0.3,0.1-0.4,0.2-0.5,0.4c-0.1,0.3-0.3,0.8-0.4,1.5c-0.1,0.8-0.2,1.7-0.2,2.6l-0.2,0.2h-1.5l-0.3-0.2l0-4.1c0-1.1-0.1-2.3-0.3-3.5
		l0.2-0.2c0.9,0.2,4.3,0.2,10.2,0.2h9.6c5.4,0,8.8-0.1,10.2-0.2L173.1,39.6z"/>
	<path class="st1" d="M210.8,57.6c0,3.7-1,6.9-3.1,9.7c-1.8,2.5-4.2,4.3-7.1,5.5c-2.7,1.1-5.9,1.7-9.7,1.7c-4.6,0-9.2-1.1-13.7-3.2
		l-0.4-0.7c0.6-2.5,0.9-6.2,0.9-10.9l0.3-0.3h2.1l0.3,0.3v0.8c0,1.2,0.1,2.9,0.4,4.9c0.8,1.4,2.2,2.6,4.3,3.7
		c2.1,1.1,4.4,1.6,6.7,1.6c4.4,0,7.4-1.5,9.1-4.6c0.9-1.6,1.3-3.2,1.3-4.9c0-2.8-1.2-4.9-3.6-6.1c-1.2-0.6-3.1-1.1-5.7-1.5
		c-5.9-0.9-9.8-2-11.7-3.4c-2.8-2.1-4.2-5.3-4.2-9.7c0-4.5,1.5-8.2,4.6-10.9c3.2-2.8,7.7-4.3,13.5-4.3c5.2,0,9.4,0.8,12.6,2.5
		l0.2,0.8c-0.5,2.6-0.9,5.8-1,9.5l-0.4,0.3h-2.1l-0.3-0.3c-0.1-2.7-0.2-4.4-0.3-5.2c-0.7-1-1.9-1.9-3.6-2.7
		c-1.8-0.8-3.7-1.1-5.7-1.1c-3,0-5.3,0.8-7,2.4c-1.6,1.5-2.4,3.4-2.4,5.7c0,2.5,0.9,4.4,2.8,5.6c1.2,0.8,4,1.5,8.5,2.2
		c0.5,0.1,1.8,0.3,3.9,0.7c1.3,0.2,2.5,0.5,3.6,1c2.2,0.8,3.9,2.1,5,3.9C210.2,52.4,210.8,54.8,210.8,57.6z"/>
	<path class="st1" d="M251,55.4c0,5.8-1.7,10.4-5.1,13.8c-3.3,3.2-7.8,4.8-13.6,4.8c-5.4,0-9.7-1.5-12.8-4.6
		c-3.1-3-4.6-7.3-4.6-12.7c0-7.6,2.9-12.9,8.7-15.8c2.6-1.3,5.9-2,9.8-2c5.5,0,9.8,1.4,12.9,4.3C249.4,46.2,251,50.2,251,55.4z
		 M243.7,56.6c0-4.6-0.9-8.2-2.8-10.9c-1.8-2.7-4.6-4.1-8.1-4.1c-4.7,0-7.8,2.1-9.4,6.3c-0.8,2.2-1.2,4.6-1.2,7.3
		c0,4.9,0.9,8.8,2.7,11.6c1.9,2.9,4.7,4.4,8.4,4.4c4.5,0,7.5-2.2,9.1-6.7C243.3,62.2,243.7,59.6,243.7,56.6z"/>
	<path class="st1" d="M288.6,41.2l-0.2,0.2c-1.9,0-2.9,0.5-3.2,1.5c-0.1,0.6-0.2,1.8-0.3,3.6c0,1.4-0.1,3.4-0.1,6v7.3
		c0,4.7-0.9,8.1-2.8,10.1c-2.5,2.7-6,4-10.5,4c-4.2,0-7.4-0.7-9.7-2.1c-2-1.2-3.2-2.8-3.8-5c-0.4-1.4-0.6-5-0.6-10.8V50
		c0-3.8-0.1-6.2-0.3-7.4c-0.1-0.5-0.3-0.8-0.8-0.9c-0.2-0.1-1.2-0.1-2.8-0.2l-0.2-0.2v-1.6l0.2-0.2c1.5,0.1,4,0.1,7.3,0.1
		c3.4,0,5.9,0,7.3-0.1l0.2,0.2v1.6l-0.2,0.2c-1.6,0.1-2.5,0.2-2.8,0.2c-0.5,0.1-0.7,0.4-0.8,0.9c-0.2,1.1-0.3,3.6-0.3,7.4v4.9
		c0,6,0.3,9.7,0.8,11c1.1,2.7,3.7,4,8,4c2.8,0,4.9-0.7,6.5-2c0.7-0.7,1.2-1.3,1.5-2c0.3-0.7,0.5-1.7,0.7-3.1
		c0.1-1.3,0.2-2.6,0.2-3.9v-4.9c0-4.2,0-7,0-8.5c0-1.4-0.1-2.4-0.3-2.8c-0.1-0.3-0.4-0.6-0.8-0.7c-0.4-0.1-1.3-0.3-2.9-0.4l-0.2-0.2
		v-1.6l0.2-0.2c1.4,0.1,2.8,0.1,4.3,0.1c1.1,0,3.2,0,6.3-0.1l0.2,0.2V41.2z"/>
	<path class="st1" d="M322.7,72.8l-0.2,0.2c-0.1,0-0.4,0-0.9,0c-2.2-0.1-3.5-0.1-4.1-0.1c-0.8,0-2.1,0-3.8,0.1
		c-0.1-0.4-0.4-1-0.9-1.9l-5.9-9.8l-2.6-4c-0.3-0.5-0.8-1-1.4-1.4l0.3-0.8c0.4,0,0.6,0,0.8,0c1.6,0,2.8-0.2,3.7-0.7
		c0.8-0.4,1.6-1.2,2.2-2.3c0.7-1.1,1-2.4,1-4c0-2.7-1-4.5-3-5.4c-1-0.4-2.3-0.7-4.2-0.7c-0.8,0-1.6,0.1-2.3,0.2
		c-0.2,1.6-0.2,4.2-0.2,7.9v12.4c0,3.8,0.1,6.2,0.3,7.4c0.1,0.5,0.3,0.8,0.8,0.9c0.2,0.1,1.2,0.1,2.8,0.2l0.2,0.2v1.6l-0.2,0.2
		c-1.6-0.1-4-0.1-7.3-0.1c-3.4,0-5.8,0-7.3,0.1l-0.2-0.2v-1.6l0.2-0.2c1.6-0.1,2.5-0.2,2.8-0.2c0.5-0.1,0.7-0.4,0.8-0.9
		c0.2-1.1,0.3-3.6,0.3-7.4V50c0-3.8-0.1-6.2-0.3-7.4c-0.1-0.5-0.3-0.8-0.8-0.9c-0.2-0.1-1.2-0.1-2.8-0.2l-0.2-0.2v-1.6l0.2-0.2
		c1.6,0.1,4,0.1,7.3,0.1c1.9,0,3.5,0,4.7-0.1c2.4-0.1,4.2-0.1,5.4-0.1c2.7,0,4.8,0.2,6,0.7c1.7,0.7,2.9,1.8,3.5,3.4
		c0.3,0.8,0.4,1.7,0.4,2.8c0,4.3-2.4,7.4-7.3,9.2c0.8,1.3,1.6,2.7,2.5,4l3.7,5.6c2.2,3.3,3.6,5.2,4.3,5.7c0.4,0.2,0.9,0.4,1.5,0.4
		l0.2,0.2V72.8z"/>
	<path class="st1" d="M355.8,68.8l-1.1,2.4c-3.3,1.8-7.1,2.8-11.2,2.8c-8.3,0-13.9-3-17-8.9c-1.4-2.8-2.1-5.7-2.1-9
		c0-5.2,1.7-9.3,5.2-12.4c3.5-3.2,8.4-4.8,14.5-4.8c3.9,0,7.7,0.7,11.4,2.1l0.3,0.4c-0.5,2.2-0.9,4.7-1,7.7l-0.2,0.2h-1.4l-0.2-0.3
		c0-1.9-0.1-3.2-0.3-4c-2-2.2-4.8-3.4-8.6-3.4c-3.8,0-6.9,1.2-9.1,3.7c-2.2,2.4-3.3,5.8-3.3,9.9c0,5.7,1.9,10,5.8,13
		c2.1,1.6,4.9,2.4,8.3,2.4c3.2,0,6.3-0.8,9.3-2.4L355.8,68.8z"/>
	<path class="st1" d="M383.8,65c-0.3,2.3-0.5,4.9-0.5,7.8l-0.2,0.2l-17.3-0.1c-2.9,0-4.9,0-6.1,0.1l-0.2-0.2v-0.7l0.1-0.3
		c1.2-0.7,1.8-1.2,1.9-1.4c0.1-0.3,0.2-1.4,0.3-3.2l0.1-5.3V50c0-3.8-0.1-6.2-0.3-7.4c-0.1-0.5-0.3-0.8-0.8-0.9
		c-0.2-0.1-1.2-0.1-2.8-0.2l-0.2-0.2v-1.6l0.2-0.2c1.6,0.1,4.1,0.1,7.4,0.1c3,0,8.6,0,17-0.1l0.3,0.2l-0.3,2.6
		c-0.1,0.8-0.2,1.6-0.2,2.1l-0.2,2.2l-0.2,0.3h-1.4l-0.2-0.2c0-2.2-0.1-3.4-0.4-3.7c-0.2-0.2-1-0.4-2.6-0.5c-1.5-0.1-2.9-0.2-4-0.2
		c-1.4,0-2.8,0.1-4.2,0.2c-0.2,1.7-0.3,4-0.3,6.9v4.9c1.3,0.1,2.3,0.1,3,0.1l3.1,0c1.5,0,2.3-0.1,2.5-0.4c0.3-0.3,0.4-1.4,0.5-3.2
		l0.2-0.2h1.5l0.2,0.2c-0.1,1.8-0.1,3.4-0.1,4.9c0,1.6,0,3.4,0.1,5.3l-0.2,0.2h-1.6l-0.2-0.2c0-1.8-0.1-2.9-0.4-3.2
		c-0.3-0.3-1-0.6-2.3-0.7c-1-0.1-2-0.1-3.1-0.1c-1.2,0-2.2,0-3.2,0.1v7.2c0,2.1,0,4.1,0.1,6h3.2c4.6,0,7.5-0.2,8.5-0.5
		c0.2-0.1,0.3-0.2,0.4-0.3c0.2-0.2,0.3-0.7,0.5-1.4l0.6-2.9l0.2-0.3h1.4L383.8,65z"/>
	<path class="st1" d="M392.5,63.9c1.4,0,2.5,0.5,3.5,1.4c1,1,1.5,2.2,1.5,3.6c0,1.4-0.5,2.6-1.5,3.5c-1,1-2.1,1.5-3.5,1.5
		s-2.5-0.5-3.5-1.5c-1-1-1.5-2.2-1.5-3.5c0-1.4,0.5-2.6,1.5-3.6C389.9,64.4,391.1,63.9,392.5,63.9z"/>
	<path class="st0" d="M415.4,70.5l-0.8,1.9c-1.7,0.9-3.4,1.4-5.1,1.4c-2.8,0-5-0.8-6.5-2.4s-2.2-3.9-2.2-6.7c0-2.6,0.6-4.6,1.7-6
		c0.3-0.4,0.9-0.9,1.8-1.5c1.8-1.3,3.1-2.1,3.7-2.3s1.6-0.4,2.8-0.4c1.7,0,3.2,0.3,4.3,0.8l0.2,0.3c0,0.2-0.1,0.8-0.3,1.8l-0.2,1.3
		c0,0.2-0.1,1.1-0.2,2.6l-0.2,0.2h-1.1l-0.2-0.2c-0.1-1.1-0.2-1.9-0.3-2.4c-0.6-1-1.6-1.5-3.2-1.5c-2.7,0-4,1.7-4,5.2
		c0,2.5,0.5,4.5,1.6,6c1.1,1.5,2.7,2.3,4.7,2.3c1.2,0,2.3-0.3,3.2-0.8L415.4,70.5z"/>
	<path class="st0" d="M433.9,72.8l-0.2,0.2c-1.1-0.1-2.3-0.1-3.7-0.1c-1.1,0-2.1,0-3.1,0.1l-0.2-0.2l0.2-2.6l-3.7,2.8
		c-0.3,0.2-0.7,0.3-1.3,0.4c-0.2,0-0.5,0-0.8,0c-1.4,0-2.5-0.4-3.2-1.3c-0.8-0.9-1.1-2-1.1-3.5c0-2,0.6-3.4,1.9-4.2
		c1.4-0.9,4.1-1.7,8.2-2.4c0-2-0.5-3.4-1.6-4.1c-0.6-0.4-1.4-0.6-2.3-0.6c-1,0-1.8,0.2-2.3,0.6l-0.7,1.8l-0.2,0.1l-1-0.2l-0.1-0.3
		l0.1-2.2c2.1-1.5,3.7-2.4,4.7-2.6c0.4-0.1,1-0.1,1.7-0.1c2.5,0,4.3,0.7,5.4,2c0.8,1,1.2,2.4,1.2,4.4c0,0.5,0,1.3-0.1,2.3
		c-0.1,1.8-0.1,3-0.1,3.6c0,1.9,0,3.1,0.1,3.7c0.1,0.5,0.2,0.9,0.4,1c0.2,0.1,0.8,0.2,1.7,0.2l0.2,0.2V72.8z M426.9,68.4v-4.7
		c-2.1,0.5-3.5,0.9-4.2,1.5c-0.7,0.5-1.1,1.3-1.1,2.4c0,1.7,0.8,2.6,2.3,2.6C425.1,70.2,426.2,69.6,426.9,68.4z"/>
</g>
<path class="st2" d="M393.2,70.7c-1.3-1.6-7.9-107.1,34.5-57.4C388.9,3.7,394.5,72.3,393.2,70.7L393.2,70.7z"/>
<line class="st3" x1="450.9" y1="20.6" x2="450.9" y2="72.9"/>
<g>
	<path d="M470.2,72.9V54h7.3c1.9,0,3.4,0.5,4.7,1.6c1.2,1.1,1.9,2.5,1.9,4.3c0,1.8-0.6,3.4-1.9,4.6c-1.3,1.3-2.8,1.9-4.6,1.9v0h-5.1
		v6.4H470.2z M472.3,56.2v8.1h5.1c1.2,0,2.2-0.4,3.1-1.3c0.9-0.9,1.3-1.9,1.3-3.1h0c0-1.1-0.4-2-1.1-2.6c-0.8-0.7-1.9-1.1-3.2-1.1
		H472.3z"/>
	<path d="M486.5,72.9V54h8.6c1.9,0,3.4,0.5,4.7,1.6c1.2,1.1,1.9,2.5,1.9,4.3c0,1.8-0.6,3.4-1.9,4.6c-0.9,0.9-2,1.5-3.2,1.8l5.8,6.6
		h-2.9l-5.6-6.4h-5.1v6.4H486.5z M488.7,56.2v8.1h6.4c1.2,0,2.2-0.4,3.1-1.3c0.9-0.9,1.3-1.9,1.3-3.1h0c0-1.1-0.4-2-1.1-2.6
		c-0.8-0.7-1.9-1.1-3.2-1.1H488.7z"/>
	<path d="M519.2,55.3c1.4,1,2.5,2.4,3.2,4.1c0.5,1.3,0.8,2.6,0.8,4s-0.3,2.7-0.8,4c-0.7,1.7-1.8,3.1-3.2,4.2
		c-1.6,1.1-3.5,1.7-5.7,1.7s-4.1-0.6-5.7-1.7c-1.4-1-2.5-2.4-3.2-4.2c-0.5-1.3-0.8-2.6-0.8-4s0.3-2.7,0.8-4c0.7-1.7,1.8-3.1,3.2-4.1
		c1.6-1.1,3.5-1.7,5.7-1.7S517.6,54.2,519.2,55.3z M517.9,57.1c-1.2-0.9-2.7-1.3-4.4-1.3s-3.2,0.4-4.4,1.3c-1.1,0.8-1.9,1.8-2.5,3.2
		c-0.4,1-0.6,2-0.6,3.2s0.2,2.2,0.6,3.2c0.5,1.3,1.4,2.4,2.5,3.2c1.2,0.9,2.7,1.3,4.4,1.3s3.2-0.4,4.4-1.3c1.1-0.8,1.9-1.8,2.5-3.2
		c0.4-1,0.6-2,0.6-3.2s-0.2-2.2-0.6-3.2C519.8,58.9,519,57.9,517.9,57.1z"/>
	<path d="M533.2,72.9V53l14.5,15.5V54h2.2v20l-14.5-15.5v14.4H533.2z"/>
	<path d="M564.8,56.2h-9.3v5.2h8.3v2.2h-8.3v7.1h9.3v2.2h-11.4V54h11.4V56.2z"/>
	<path d="M574.3,56.2v16.7h-2.2V56.2h-5.9V54h14v2.2H574.3z"/>
	<path d="M607.7,54l-8.5,20l-4.9-11.5L589.3,74l-8.5-20h2.3l6.1,14.5l3.9-8.7l-2.5-5.8h2.4l6.1,14.5l6.1-14.5H607.7z"/>
	<path d="M624.3,55.3c1.4,1,2.5,2.4,3.2,4.1c0.5,1.3,0.8,2.6,0.8,4s-0.3,2.7-0.8,4c-0.7,1.7-1.8,3.1-3.2,4.2
		c-1.6,1.1-3.5,1.7-5.7,1.7s-4.1-0.6-5.7-1.7c-1.4-1-2.5-2.4-3.2-4.2c-0.5-1.3-0.8-2.6-0.8-4s0.3-2.7,0.8-4c0.7-1.7,1.8-3.1,3.2-4.1
		c1.6-1.1,3.5-1.7,5.7-1.7S622.7,54.2,624.3,55.3z M623,57.1c-1.2-0.9-2.7-1.3-4.4-1.3s-3.2,0.4-4.4,1.3c-1.1,0.8-1.9,1.8-2.5,3.2
		c-0.4,1-0.6,2-0.6,3.2s0.2,2.2,0.6,3.2c0.5,1.3,1.4,2.4,2.5,3.2c1.2,0.9,2.7,1.3,4.4,1.3s3.2-0.4,4.4-1.3c1.1-0.8,1.9-1.8,2.5-3.2
		c0.4-1,0.6-2,0.6-3.2s-0.2-2.2-0.6-3.2C625,58.9,624.1,57.9,623,57.1z"/>
	<path d="M631.2,72.9V54h8.6c1.9,0,3.4,0.5,4.7,1.6c1.2,1.1,1.9,2.5,1.9,4.3c0,1.8-0.6,3.4-1.9,4.6c-0.9,0.9-2,1.5-3.2,1.8l5.8,6.6
		h-2.9l-5.6-6.4h-5.1v6.4H631.2z M633.3,56.2v8.1h6.4c1.2,0,2.2-0.4,3.1-1.3c0.9-0.9,1.3-1.9,1.3-3.1h0c0-1.1-0.4-2-1.1-2.6
		c-0.8-0.7-1.9-1.1-3.2-1.1H633.3z"/>
	<path d="M651.3,54v9.1L663,54h3.5l-8.3,6.4c2.2,0.1,4.1,1,5.6,2.5c1.7,1.7,2.5,3.7,2.5,6.1v3.8h-2.2V69c0-1.8-0.6-3.3-1.9-4.6
		c-1.3-1.3-2.8-1.9-4.6-1.9h-2.3l-4.2,3.2v7h-2.2V54H651.3z"/>
</g>
</svg>
